<svg width="150" height="50" viewBox="0 0 150 50" fill="none" xmlns="http://www.w3.org/2000/svg">
<rect width="150" height="50" rx="25" fill="#FE5F1E"/>
<path d="M27.896 29.192C30.472 29.192 32.168 27.768 32.168 25.496C32.168 23.336 30.552 22.04 28.744 22.04C27.768 22.04 26.904 22.424 26.392 22.936V20.328H31.448V18.328H24.12V24.456L25.704 24.872C26.344 24.264 27.064 24.008 27.944 24.008C29.16 24.008 29.864 24.648 29.864 25.592C29.864 26.456 29.144 27.176 27.88 27.176C26.76 27.176 25.768 26.76 25.048 26.008L23.784 27.592C24.696 28.584 26.04 29.192 27.896 29.192ZM41.5184 29V27H37.1664C39.9344 24.984 41.4384 23.4 41.4384 21.576C41.4384 19.448 39.6304 18.168 37.3584 18.168C35.8704 18.168 34.2864 18.712 33.2464 19.912L34.5424 21.416C35.2624 20.664 36.1904 20.184 37.4064 20.184C38.2864 20.184 39.1344 20.648 39.1344 21.576C39.1344 22.888 37.8544 23.992 33.4864 27.224V29H41.5184ZM47.2881 29.192C50.3281 29.192 51.7041 26.424 51.7041 23.672C51.7041 20.92 50.3281 18.168 47.2881 18.168C44.2321 18.168 42.8721 20.92 42.8721 23.672C42.8721 26.424 44.2321 29.192 47.2881 29.192ZM47.2881 27.176C45.7521 27.176 45.1761 25.64 45.1761 23.672C45.1761 21.704 45.7521 20.184 47.2881 20.184C48.8081 20.184 49.3841 21.704 49.3841 23.672C49.3841 25.64 48.8081 27.176 47.2881 27.176ZM57.7838 29V27.288H56.5038V25.736H57.7838V24.488H56.5038V22.504H57.7838V17.576H61.4318C62.9038 17.576 63.9758 17.8747 64.6478 18.472C65.3304 19.0693 65.6718 19.8907 65.6718 20.936C65.6718 21.5547 65.5331 22.136 65.2558 22.68C64.9784 23.224 64.5144 23.6613 63.8638 23.992C63.2238 24.3227 62.3491 24.488 61.2398 24.488H60.1998V25.736H62.6638V27.288H60.1998V29H57.7838ZM60.1998 22.504H60.9998C61.6824 22.504 62.2211 22.3867 62.6158 22.152C63.0211 21.9173 63.2238 21.5387 63.2238 21.016C63.2238 20.0453 62.5838 19.56 61.3038 19.56H60.1998V22.504Z" fill="white"/>
<path d="M121.528 29.192C124.088 29.192 125.736 27.896 125.736 26.056C125.736 24.456 124.328 23.608 123.24 23.496C124.424 23.288 125.576 22.408 125.576 21.064C125.576 19.288 124.04 18.168 121.544 18.168C119.672 18.168 118.328 18.888 117.464 19.864L118.6 21.288C119.352 20.568 120.28 20.184 121.304 20.184C122.424 20.184 123.288 20.6 123.288 21.448C123.288 22.232 122.504 22.584 121.32 22.584C120.92 22.584 120.184 22.584 119.992 22.568V24.616C120.152 24.6 120.872 24.584 121.32 24.584C122.808 24.584 123.464 24.968 123.464 25.816C123.464 26.616 122.744 27.176 121.448 27.176C120.408 27.176 119.24 26.728 118.504 25.96L117.32 27.48C118.104 28.44 119.56 29.192 121.528 29.192Z" fill="white"/>
<path d="M98.3333 31.3333C99.0697 31.3333 99.6667 30.7364 99.6667 30C99.6667 29.2636 99.0697 28.6667 98.3333 28.6667C97.597 28.6667 97 29.2636 97 30C97 30.7364 97.597 31.3333 98.3333 31.3333Z" stroke="white" stroke-width="1.8" stroke-linecap="round" stroke-linejoin="round"/>
<path d="M106.333 31.3333C107.07 31.3333 107.667 30.7364 107.667 30C107.667 29.2636 107.07 28.6667 106.333 28.6667C105.597 28.6667 105 29.2636 105 30C105 30.7364 105.597 31.3333 106.333 31.3333Z" stroke="white" stroke-width="1.8" stroke-linecap="round" stroke-linejoin="round"/>
<path d="M96.78 20H108.333L107.213 25.5933C107.152 25.9003 106.985 26.176 106.742 26.3722C106.498 26.5684 106.193 26.6727 105.88 26.6667H98.8334C98.5078 26.6694 98.1925 26.553 97.9469 26.3393C97.7013 26.1256 97.5423 25.8295 97.5 25.5067L96.4867 17.8267C96.4447 17.5061 96.2876 17.2118 96.0448 16.9984C95.802 16.7851 95.4899 16.6671 95.1667 16.6667H93.6667" stroke="white" stroke-width="1.8" stroke-linecap="round" stroke-linejoin="round"/>
<rect x="79" y="12" width="1" height="25" fill="white" fill-opacity="0.25"/>
</svg>
